<?xml version="1.0" standalone="no"?>
<!DOCTYPE svg PUBLIC "-//W3C//DTD SVG 20010904//EN"
 "http://www.w3.org/TR/2001/REC-SVG-20010904/DTD/svg10.dtd">
<svg version="1.0" xmlns="http://www.w3.org/2000/svg"
 width="308.000000pt" height="192.000000pt" viewBox="0 0 308.000000 192.000000"
 preserveAspectRatio="xMidYMid meet">

<g transform="translate(0.000000,192.000000) scale(0.100000,-0.100000)"
fill="#000000" stroke="none">
<path d="M386 1793 c4 -16 29 -111 55 -213 26 -102 46 -186 46 -187 -1 -1 -78
-9 -172 -18 -208 -21 -234 -32 -270 -119 -15 -35 -14 -54 5 -259 25 -265 36
-298 113 -336 l48 -24 225 23 c124 12 228 19 231 16 6 -5 172 -641 173 -658 0
-5 313 -8 695 -8 382 0 695 3 695 8 1 17 167 653 173 658 3 3 106 -4 229 -16
l224 -22 41 21 c41 21 75 59 86 96 12 41 48 450 43 479 -8 38 -49 92 -84 110
-15 8 -101 22 -192 31 -91 9 -166 18 -167 18 0 1 20 85 46 187 26 102 51 197
55 213 l6 27 -1155 0 -1155 0 6 -27z m2191 -76 c-2 -6 -22 -80 -42 -162 -21
-83 -39 -151 -40 -153 -1 -1 -114 9 -251 23 -305 30 -359 31 -400 6 -44 -27
-72 -77 -79 -141 -3 -30 -8 -70 -11 -87 l-5 -33 -219 0 c-121 0 -220 1 -220 3
-2 68 -24 176 -41 204 -51 82 -84 86 -449 48 -129 -13 -238 -21 -242 -17 -3 4
-23 72 -43 152 -21 80 -40 151 -42 158 -4 9 208 12 1042 12 835 0 1046 -3
1042 -13z m-1415 -389 c13 -10 21 -60 38 -225 21 -211 19 -253 -11 -253 -5 0
-212 -20 -460 -45 -477 -48 -506 -50 -528 -36 -19 13 -60 446 -43 463 8 8 181
30 475 59 542 55 509 52 529 37z m1278 -39 c234 -23 435 -46 448 -50 18 -7 22
-16 22 -51 -1 -68 -36 -403 -44 -416 -4 -7 -22 -12 -41 -12 -50 0 -941 89
-959 96 -8 3 -17 12 -20 20 -3 8 3 101 14 206 11 106 20 200 20 209 0 36 30
51 84 45 28 -3 242 -24 476 -47z m-707 -341 c-5 -97 -4 -105 18 -137 44 -63
67 -70 320 -96 127 -13 233 -26 236 -28 2 -3 -29 -135 -70 -293 l-74 -289
-628 0 -628 0 -74 289 c-41 158 -72 290 -69 293 3 3 107 16 230 28 247 25 271
32 314 96 22 31 24 41 20 137 l-5 102 208 0 208 0 -6 -102z"/>
</g>
</svg>
